<svg width="16" height="17" viewBox="0 0 16 17" fill="none" xmlns="http://www.w3.org/2000/svg">
<g clip-path="url(#clip0_1528_19482)">
<path d="M7.99767 1.13086C6.66467 1.13128 5.35675 1.49324 4.21321 2.17822C3.06966 2.86319 2.13333 3.84551 1.50393 5.02055C0.87452 6.19559 0.575621 7.51935 0.639063 8.85084C0.702504 10.1823 1.12591 11.4717 1.86419 12.5815L0.628418 15.8694L4.76653 15.1211C5.76298 15.608 6.85649 15.8638 7.96553 15.8693C9.07457 15.8748 10.1705 15.6299 11.1718 15.1528C12.1729 14.6758 13.0536 13.9789 13.748 13.1142C14.4424 12.2494 14.9327 11.239 15.1823 10.1584C15.4318 9.07782 15.4343 7.95482 15.1894 6.87312C14.9446 5.79144 14.4588 4.77896 13.7681 3.91118C13.0775 3.0434 12.1999 2.34269 11.2008 1.86129C10.2016 1.37989 9.10673 1.13021 7.99767 1.13086Z" stroke="#F87951" stroke-width="1.4" stroke-linecap="round" stroke-linejoin="round"/>
</g>
<defs>
<clipPath id="clip0_1528_19482">
<rect width="16" height="16" fill="white" transform="translate(0 0.5)"/>
</clipPath>
</defs>
</svg>
