<svg width="20" height="20" viewBox="0 0 20 20" fill="none" xmlns="http://www.w3.org/2000/svg">
<path d="M10.0007 3.33317C10.2217 3.33317 10.4336 3.42097 10.5899 3.57725C10.7462 3.73353 10.834 3.94549 10.834 4.1665L10.834 18.3332C10.834 18.5542 10.7462 18.7661 10.5899 18.9224C10.4336 19.0787 10.2217 19.1665 10.0007 19.1665C9.77964 19.1665 9.56768 19.0787 9.4114 18.9224C9.25512 18.7661 9.16732 18.5542 9.16732 18.3332L9.16732 4.1665C9.16732 3.94549 9.25512 3.73353 9.4114 3.57725C9.56768 3.42097 9.77964 3.33317 10.0007 3.33317Z" fill="#F87951"/>
<path d="M4.16667 12.5002C4.38766 12.5002 4.59959 12.5881 4.75584 12.7443L10 17.9885L15.2442 12.7443C15.4013 12.5925 15.6118 12.5086 15.8303 12.5104C16.0488 12.5123 16.2578 12.6 16.4123 12.7545C16.5669 12.909 16.6545 13.118 16.6564 13.3365C16.6583 13.555 16.5743 13.7655 16.4225 13.9227L10.5892 19.756C10.4329 19.9122 10.221 20 10 20C9.77903 20 9.56711 19.9122 9.41083 19.756L3.5775 13.9227C3.46099 13.8061 3.38166 13.6577 3.34951 13.496C3.31738 13.3344 3.33388 13.1669 3.39694 13.0146C3.45999 12.8624 3.56678 12.7322 3.70379 12.6407C3.84079 12.5491 4.00188 12.5002 4.16667 12.5002ZM0.833336 0.000177615L19.1667 0.000179218C19.3877 0.000179237 19.5996 0.0879764 19.7559 0.244257C19.9122 0.400537 20 0.612499 20 0.833513C20 1.05453 19.9122 1.26649 19.7559 1.42277C19.5996 1.57905 19.3877 1.66685 19.1667 1.66685L0.833336 1.66685C0.612322 1.66685 0.40036 1.57905 0.244079 1.42277C0.0877988 1.26649 1.65627e-06 1.05453 1.67559e-06 0.833512C1.69491e-06 0.612497 0.0877989 0.400536 0.244079 0.244255C0.40036 0.0879747 0.612322 0.000177596 0.833336 0.000177615Z" fill="#F87951"/>
<path d="M0.833334 -1.6756e-06C1.05435 -1.65628e-06 1.26631 0.0877951 1.42259 0.244076C1.57887 0.400356 1.66667 0.612318 1.66667 0.833332L1.66667 4.16667C1.66667 4.38768 1.57887 4.59964 1.42259 4.75592C1.26631 4.9122 1.05435 5 0.833334 5C0.61232 5 0.400358 4.9122 0.244078 4.75592C0.0877972 4.59964 5.35307e-08 4.38768 7.28523e-08 4.16666L3.64262e-07 0.833332C3.83583e-07 0.612318 0.0877976 0.400356 0.244078 0.244075C0.400359 0.087795 0.61232 -1.69492e-06 0.833334 -1.6756e-06ZM19.1667 -7.28523e-08C19.3877 -5.35307e-08 19.5996 0.0877967 19.7559 0.244077C19.9122 0.400357 20 0.612319 20 0.833333L20 4.16667C20 4.38768 19.9122 4.59964 19.7559 4.75592C19.5996 4.9122 19.3877 5 19.1667 5C18.9457 5 18.7337 4.9122 18.5774 4.75592C18.4211 4.59964 18.3333 4.38768 18.3333 4.16667L18.3333 0.833333C18.3333 0.612319 18.4211 0.400357 18.5774 0.244077C18.7337 0.0877966 18.9457 -9.21739e-08 19.1667 -7.28523e-08Z" fill="#F87951"/>
</svg>
