<svg width="20" height="20" viewBox="0 0 20 20" fill="none" xmlns="http://www.w3.org/2000/svg">
<path d="M17.6573 1.84665C15.0183 -0.0270594 11.7596 0.847339 10.0003 2.9917C8.24095 0.847339 4.9822 -0.037469 2.34322 1.84665C0.943757 2.84596 0.0640948 4.5323 0.00411789 6.31233C-0.135828 10.3512 3.30285 13.5886 8.55083 18.5539L8.65079 18.6476C9.4105 19.3659 10.5801 19.3659 11.3398 18.6372L11.4497 18.5331C16.6977 13.5782 20.1264 10.3408 19.9964 6.30192C19.9365 4.53231 19.0568 2.84596 17.6573 1.84665ZM10.1002 17.0029L10.0003 17.107L9.90031 17.0029C5.14214 12.5164 2.00335 9.54969 2.00335 6.54134C2.00335 4.45944 3.50277 2.89801 5.502 2.89801C7.04141 2.89801 8.54084 3.92855 9.07063 5.35466H10.9399C11.4597 3.92855 12.9591 2.89801 14.4985 2.89801C16.4978 2.89801 17.9972 4.45944 17.9972 6.54134C17.9972 9.54969 14.8584 12.5164 10.1002 17.0029Z" fill="#F87951"/>
</svg>
