<svg width="124" height="88" viewBox="0 0 124 88" fill="none" xmlns="http://www.w3.org/2000/svg">
<path d="M35.2296 30.0733C32.7481 27.7888 31.0186 24.905 30.1538 21.7217L29.7402 22.2085V22.9201C29.9282 27.5641 31.3946 31.3467 34.816 34.4926C37.1095 36.5899 39.8918 38.0505 42.8621 38.6871C45.5692 37.8632 48.0131 36.3652 50.0435 34.3428C49.2915 34.4551 47.7123 34.53 46.9228 34.5675C41.9598 34.6049 38.6135 32.9571 35.2296 30.0733Z" fill="url(#paint0_linear_1636_20762)"/>
<path d="M45.8814 8.12307C50.5436 7.93581 55.0178 9.54622 58.4393 12.6921C60.9208 14.9767 62.6504 17.8604 63.5151 21.0063C63.8535 22.2048 64.0415 23.4781 64.0791 24.7889C64.3423 23.553 64.4927 22.3171 64.4927 21.0063V20.2948C64.3047 15.6508 62.312 11.3439 58.8529 8.19797C56.5594 6.10069 53.7771 4.64009 50.8068 4.00342C48.0997 4.82735 45.6558 6.3254 43.6255 8.34778C44.3399 8.23542 45.1294 8.16052 45.8814 8.12307Z" fill="url(#paint1_linear_1636_20762)"/>
<path d="M38.5011 20.9729C38.5011 18.8382 39.2907 16.8158 40.757 15.2429C42.2986 13.5575 44.4079 12.7074 46.6638 12.595C51.326 12.4078 55.7589 14.0819 59.1803 17.2278C60.4587 18.3888 61.4438 19.5385 62.3085 20.9617C62.7973 21.7856 63.6922 23.4447 64.1057 24.7555C64.1057 24.2312 63.9553 22.1714 63.6546 20.9355C62.7146 17.3776 60.9475 14.9432 58.466 12.6587C55.0445 9.51279 50.5703 7.86493 45.908 8.08964C45.1185 8.12709 44.3665 8.20199 43.6145 8.3518C43.4641 8.50161 43.2761 8.68886 43.1258 8.83867C40.0051 12.1344 38.3883 16.4413 38.5011 20.9729Z" fill="url(#paint2_linear_1636_20762)"/>
<path d="M31.2818 21.722H30.1538C30.981 24.9054 32.7481 27.7517 35.2296 30.0362C38.9895 33.4817 43.1253 34.83 47.7875 34.6053C48.5771 34.5678 49.3291 34.4929 50.081 34.3431C50.2314 34.1933 50.4194 34.0061 50.5698 33.8563C53.6529 30.5231 55.2696 26.2162 55.1944 21.6846C55.1944 23.8193 54.4049 25.8417 52.9385 27.4146C51.397 29.0999 49.2915 30.0362 47.0356 30.1486C44.7796 30.2609 42.5989 29.437 40.907 27.9015C39.2151 26.366 38.2751 24.2687 38.1623 22.0216V21.6846H33.6881V22.8081C33.7257 23.5946 33.8009 24.3436 33.9513 25.0926C34.1017 25.2424 32.8421 24.3923 32.9925 24.5421C31.7517 23.4186 32.1465 23.1452 31.2818 21.722Z" fill="url(#paint3_linear_1636_20762)"/>
<path d="M34.0645 22.0962V20.9727H31.6582C32.4102 22.2086 33.2749 23.3321 34.3277 24.3807C34.1773 23.6317 34.1021 22.8827 34.0645 22.0962Z" fill="url(#paint4_linear_1636_20762)"/>
<path d="M52.4123 15.505C54.2171 17.1529 55.0818 19.3251 55.157 21.722C55.0818 26.291 53.6155 30.5605 50.5324 33.8937C48.4269 36.1782 45.7574 37.7886 42.8623 38.6874C46.5094 38.9496 51.7732 36.74 54.9314 33.2944C57.8265 30.1485 59.7065 26.2161 59.744 21.8343V20.5235C59.7065 19.737 59.4809 19.0255 59.3681 18.2764C59.2177 18.1266 59.0297 17.9394 58.8793 17.7896C55.4578 14.6437 50.9836 12.9958 46.3214 13.2205C48.5773 13.183 50.758 13.9695 52.4123 15.505Z" fill="url(#paint5_linear_1636_20762)"/>
<path d="M47.3741 39.1364C52.0364 38.9492 56.3602 36.9643 59.5185 33.5187C61.624 31.2342 63.0903 28.4628 63.7295 25.5041C63.3159 24.1933 62.7519 22.92 62.0376 21.7215C61.2856 20.4857 60.4208 19.3621 59.3681 18.3135C59.4809 19.0625 59.5937 19.8115 59.6313 20.598V21.7215C59.6313 25.5041 57.9393 29.9608 55.0066 33.1068C51.8484 36.5148 47.5245 38.4623 42.8623 38.687C44.3286 39.0241 45.8702 39.2113 47.3741 39.1364Z" fill="url(#paint6_linear_1636_20762)"/>
<path d="M50.57 33.8937C53.6531 30.5606 55.2698 26.2536 55.1946 21.722V21.385C55.157 20.7108 55.0442 20.0742 54.8938 19.4375C55.0066 20.1116 55.1194 20.8981 55.1194 21.7595C55.157 23.8942 54.781 26.5158 53.4275 29.4745C50.382 36.2157 43.3135 38.5377 42.8623 38.6875C45.795 37.7887 48.4269 36.1783 50.57 33.8937Z" fill="url(#paint7_linear_1636_20762)"/>
<path d="M54.7888 14.3926C58.4359 16.0405 60.8046 18.8119 62.2709 21.0964C63.5117 23.0439 63.9629 24.3547 64.0381 24.5419C63.6245 23.2311 63.1357 22.2574 62.4213 21.0964C61.5566 19.6732 60.5038 18.3625 59.2254 17.2015C55.804 14.0555 51.3297 12.4077 46.6675 12.5949C45.9908 12.6324 45.3516 12.7073 44.7124 12.8946C47.1939 12.52 50.465 12.4826 54.7888 14.3926Z" fill="url(#paint8_linear_1636_20762)"/>
<path d="M34.0641 46.9642V21.0105C34.1393 16.7784 35.756 12.7712 38.6887 9.62524C41.847 6.21716 46.1708 4.19479 50.833 4.00753C49.3667 3.67047 47.8627 3.55812 46.3212 3.63302C41.659 3.82028 37.3351 5.8052 34.1769 9.25072C32.0714 11.5353 30.605 14.3067 29.9658 17.2653C29.7026 18.5012 29.5522 19.7371 29.5522 21.0479L29.5146 55.4657C34.0979 52.4359 34.0641 46.9642 34.0641 46.9642Z" fill="url(#paint9_linear_1636_20762)"/>
<path d="M38.5007 46.5521L38.5383 21.0102C38.4255 16.4786 40.0422 12.1717 43.1253 8.83855C45.2308 6.55402 47.9003 4.90616 50.7954 4.00732C46.1332 4.19458 41.8094 6.1795 38.6511 9.62503C35.756 12.7709 34.1393 16.7782 34.0265 21.0102V46.964C34.0265 46.964 34.0641 52.2072 29.5146 55.4655C34.5153 55.4655 38.5007 51.4582 38.5007 46.5521Z" fill="url(#paint10_linear_1636_20762)"/>
<path d="M38.6514 46.5521V21.0102C38.6138 18.8755 38.9522 16.2539 40.3057 13.2953C43.3512 6.55402 50.3446 4.15713 50.7957 4.00732C47.9006 4.86871 45.1334 6.6027 43.1256 8.83855C40.0425 12.1717 38.4258 16.4786 38.501 21.0102V46.5521C38.501 49.286 37.1851 51.2335 37.1851 51.2335C37.1851 51.2335 38.6514 49.4358 38.6514 46.5521Z" fill="url(#paint11_linear_1636_20762)"/>
<path d="M73.0918 29.2496C73.0918 29.0624 73.0918 28.8376 73.1291 28.6504H73.0918V29.2496Z" fill="url(#paint12_linear_1636_20762)"/>
<path d="M90.5751 20.1116C90.5751 20.1116 84.3714 14.9433 78.6188 18.8757C73.9942 22.059 73.2422 26.4783 73.1294 28.0513C73.1294 28.2385 73.1294 28.4258 73.0918 28.6505H73.1294C73.2798 26.4783 74.2574 24.4185 75.9493 22.9204C77.2276 21.7594 78.882 21.0104 80.5739 20.8231C81.7771 20.6733 82.9802 20.7857 84.0706 21.1228C85.9129 21.6471 87.3417 22.8455 87.8304 23.22C88.3944 23.632 89.184 23.7818 89.8608 23.7818C92.3799 23.7818 94.0342 21.6845 94.335 19.1753C93.4702 21.3475 91.3271 20.8231 90.5751 20.1116Z" fill="url(#paint13_linear_1636_20762)"/>
<path d="M93.8086 16.8157C93.6582 16.591 93.5454 16.4037 93.3574 16.179C92.9438 15.6547 92.5302 15.3176 92.0791 14.9806C90.0863 13.52 87.8304 12.6211 85.4617 12.1343C82.7546 12.9582 80.2731 14.4563 78.2428 16.5161C78.0924 16.6659 77.9044 16.8531 77.754 17.003C74.9341 20.074 73.3174 23.9315 73.1294 28.0511C73.2422 26.4781 73.9942 22.0589 78.6188 18.8755C84.3338 14.9431 90.5375 20.1114 90.5375 20.1114C90.5375 20.1114 93.0942 22.321 94.335 19.1751C94.4102 18.2763 94.147 17.4524 93.959 17.0404C93.8838 16.9655 93.8462 16.8906 93.8086 16.8157Z" fill="url(#paint14_linear_1636_20762)"/>
<path d="M73.2422 17.7894C76.438 14.3439 80.7619 12.359 85.4617 12.1343C82.529 13.0331 79.9836 14.7334 77.754 17.003C74.5581 20.4485 72.9414 24.9052 73.1294 29.5866C73.2422 31.8711 74.2197 33.9684 75.8741 35.5039C77.566 37.0394 79.7467 37.8259 82.0402 37.751C77.3404 37.9383 72.8662 36.2904 69.4071 33.1445C69.2191 32.9947 69.0687 32.8074 68.9183 32.6576C68.8055 31.9086 68.6927 31.1221 68.6552 30.3731C68.4296 25.6917 70.0839 21.235 73.2422 17.7894Z" fill="url(#paint15_linear_1636_20762)"/>
<path d="M68.7677 17.4525C71.9636 14.007 76.2874 12.0221 80.9872 11.7974C82.5287 11.7225 83.9951 11.8348 85.4614 12.1344C80.536 12.5089 76.513 14.3815 73.3171 17.827C70.1212 21.2726 68.5045 25.7293 68.6925 30.4107C68.7301 31.1972 68.8241 31.8676 68.9181 32.6578C66.8502 30.6354 65.271 28.2011 64.4438 25.5046C65.083 22.5459 66.6246 19.7745 68.7677 17.4525Z" fill="url(#paint16_linear_1636_20762)"/>
<path d="M81.6264 38.4999C76.9266 38.6871 72.4523 37.0767 68.9933 33.8933C66.6998 31.7586 65.0078 29.137 64.1055 26.2158C64.2559 26.6652 66.6622 33.6686 73.4675 36.7397C77.6409 38.6122 81.1376 38.6497 83.5815 38.2003C82.9799 38.3501 82.3408 38.4624 81.6264 38.4999Z" fill="url(#paint17_linear_1636_20762)"/>
<path d="M73.129 29.5866C72.941 24.9052 74.5577 20.4485 77.7536 17.003C79.8967 14.7184 82.5286 13.0331 85.4613 12.1343C85.0101 12.2841 77.9792 14.681 74.8961 21.4597C73.0162 25.6168 72.9786 29.0997 73.4298 31.5341C73.2418 30.9349 73.129 30.2607 73.129 29.5866Z" fill="url(#paint18_linear_1636_20762)"/>
<path d="M83.2055 40.1106L86.2134 36.7025C85.9126 37.0396 85.3486 37.3767 84.9727 37.5639C83.9199 38.0508 82.7544 38.4253 81.6264 38.4628C76.9266 38.65 72.4523 37.0022 68.9933 33.8562C66.6622 31.7215 65.0078 29.0999 64.1055 26.1787C64.2935 30.8601 66.3238 35.167 69.7829 38.3504C72.4148 40.7473 75.6482 42.2828 79.1073 42.8071C81.7016 41.7585 83.2055 40.1106 83.2055 40.1106Z" fill="url(#paint19_linear_1636_20762)"/>
<path d="M79.1071 42.8071C75.6405 42.163 72.4785 40.7286 69.8466 38.2942C66.3875 35.1109 64.3309 30.8601 64.1053 26.1787C63.7669 27.6393 63.6541 29.1748 63.7293 30.7103C63.8797 34.5678 65.3084 38.2006 67.7147 41.1218C72.3018 44.3426 76.3248 43.9307 79.1071 42.8071Z" fill="url(#paint20_linear_1636_20762)"/>
<path d="M83.619 44.979C89.0332 43.4435 90.8755 39.0242 91.5147 35.8034C90.9131 35.5038 90.2364 35.354 89.4844 35.354C88.206 35.354 87.0405 35.8783 86.2133 36.7397C85.8373 37.1142 83.2806 40.0729 83.2806 40.0729C83.2806 40.0729 81.6639 41.7956 79.1072 42.8068C76.3249 43.9304 72.3019 44.3423 67.7148 41.1215C67.7148 41.1215 73.881 47.7879 83.619 44.979Z" fill="url(#paint21_linear_1636_20762)"/>
<path d="M94.0714 39.8859C94.0714 38.0882 93.0187 36.5153 91.5147 35.8037C90.8755 38.9871 89.0332 43.4438 83.619 44.9793C73.881 47.7507 67.7148 41.1218 67.7148 41.1218C68.2412 41.721 68.7676 42.3202 69.3692 42.8446C71.7003 44.9793 74.4826 46.4024 77.4529 47.0766C78.9192 47.4136 80.4231 47.526 81.9647 47.4511C85.8373 47.3013 89.4092 45.8407 92.3419 43.4438C93.4322 42.5824 94.0714 41.3091 94.0714 39.8859Z" fill="url(#paint22_linear_1636_20762)"/>
<path d="M67.7148 41.1218C67.7148 41.1218 71.7003 44.3426 76.6257 43.4812C81.6263 42.8071 83.6566 39.6612 84.9726 38.2006C86.2885 36.74 87.1909 35.6165 88.8828 35.4292C88.8828 35.4292 87.8677 35.4292 86.6645 36.3655C86.0629 36.8149 84.8222 38.2381 83.7694 39.399C81.4759 42.0206 79.032 42.9944 76.7009 43.3689C74.2946 43.7434 71.1363 43.4812 67.7148 41.1218Z" fill="url(#paint23_linear_1636_20762)"/>
<path d="M12.2194 65.9517C12.2194 66.8505 11.9186 67.5621 11.3546 68.0864C10.7531 68.6107 9.88829 68.9103 8.72273 68.9103H6.80521C6.69241 68.9103 6.61721 68.9852 6.61721 69.0976V73.1049C6.61721 73.2172 6.54202 73.2921 6.42922 73.2921H5.75245C5.63965 73.2921 5.56445 73.2172 5.56445 73.1049V63.1428C5.56445 63.0305 5.63965 62.9556 5.75245 62.9556H8.68513C9.85069 62.9556 10.7155 63.2177 11.2794 63.7795C11.9562 64.3413 12.2194 65.0528 12.2194 65.9517ZM8.72273 68.0115C10.3395 68.0115 11.1666 67.3374 11.1666 65.9517C11.1666 65.2776 10.9786 64.7532 10.6027 64.3787C10.2267 64.0417 9.5875 63.8544 8.76033 63.8544H6.8428C6.73001 63.8544 6.65481 63.9293 6.65481 64.0417V67.8242C6.65481 67.9366 6.73001 68.0115 6.8428 68.0115H8.72273Z" fill="#F87951"/>
<path d="M21.3185 73.4045C20.3409 73.4045 19.4762 73.1798 18.7242 72.7304C17.9346 72.281 17.333 71.6443 16.8819 70.8579C16.4307 70.0339 16.2051 69.1351 16.2051 68.1239C16.2051 67.1127 16.4307 66.2139 16.8819 65.39C17.333 64.566 17.9722 63.9668 18.7242 63.5174C19.5138 63.068 20.3785 62.8433 21.3185 62.8433C22.2584 62.8433 23.1608 63.068 23.9504 63.5174C24.7399 63.9668 25.3415 64.6035 25.7927 65.39C26.2439 66.1764 26.4695 67.0753 26.4695 68.1239C26.4695 69.1725 26.2439 70.0339 25.7927 70.8579C25.3415 71.6443 24.7399 72.281 23.9504 72.7304C23.1608 73.1798 22.2584 73.4045 21.3185 73.4045ZM21.3185 72.5057C22.108 72.5057 22.7848 72.3185 23.3864 71.9814C23.988 71.6443 24.4768 71.12 24.8527 70.4459C25.1911 69.7718 25.3791 68.9853 25.3791 68.1239C25.3791 67.2625 25.1911 66.476 24.8527 65.8394C24.5144 65.1652 24.0256 64.6784 23.3864 64.3039C22.7848 63.9668 22.0705 63.7795 21.3185 63.7795C20.5289 63.7795 19.8521 63.9668 19.2506 64.3039C18.649 64.6409 18.1602 65.1652 17.7842 65.8394C17.4458 66.5135 17.2578 67.2625 17.2578 68.1239C17.2578 68.9853 17.4458 69.7718 17.7842 70.4459C18.1226 71.12 18.6114 71.6069 19.2506 71.9814C19.8897 72.3559 20.5289 72.5057 21.3185 72.5057Z" fill="#F87951"/>
<path d="M32.0337 72.281C32.0337 72.3933 32.1089 72.4682 32.2217 72.4682H35.568C35.6808 72.4682 35.756 72.5431 35.756 72.6555V73.1049C35.756 73.2172 35.6808 73.2921 35.568 73.2921H31.2065C31.0938 73.2921 31.0186 73.2172 31.0186 73.1049V63.1428C31.0186 63.0305 31.0938 62.9556 31.2065 62.9556H31.8833C31.9961 62.9556 32.0713 63.0305 32.0713 63.1428V72.281H32.0337Z" fill="#F87951"/>
<path d="M46.4718 62.9932C46.6222 62.9932 46.6974 63.143 46.6222 63.2553L43.5015 69.2101C43.4639 69.2475 43.4639 69.3224 43.4639 69.3973V73.1425C43.4639 73.2548 43.3887 73.3297 43.2759 73.3297H42.5991C42.4863 73.3297 42.4111 73.2548 42.4111 73.1425V69.3973C42.4111 69.3224 42.4111 69.285 42.3735 69.2101L39.2153 63.2553C39.1401 63.143 39.2529 62.9932 39.3657 62.9932H40.0048C40.1552 62.9932 40.268 63.0681 40.3432 63.2179L42.7871 68.0491C42.8623 68.1989 43.0503 68.1989 43.1255 68.0491L45.5318 63.2179C45.607 63.1055 45.7198 62.9932 45.8702 62.9932H46.4718Z" fill="#F87951"/>
<path d="M50.3442 68.1612C50.3442 67.15 50.5698 66.2511 51.0586 65.4647C51.5474 64.6782 52.1866 64.0415 52.9761 63.5921C53.8033 63.1427 54.6681 62.918 55.6456 62.918C56.736 62.918 57.7136 63.1801 58.5783 63.7419C59.2927 64.1913 59.8191 64.7531 60.2327 65.5021C60.3455 65.7268 60.1575 65.989 59.8943 65.989H58.6535C58.5031 65.989 58.3903 65.9141 58.3151 65.7643C58.0519 65.3149 57.7136 64.9778 57.3 64.7531C56.8112 64.4909 56.2848 64.3411 55.6456 64.3411C54.9689 64.3411 54.3673 64.4909 53.8033 64.7905C53.2769 65.0901 52.8633 65.5396 52.525 66.1013C52.2242 66.6631 52.0738 67.3372 52.0738 68.0863C52.0738 68.8353 52.2242 69.5094 52.525 70.0712C52.8257 70.633 53.2393 71.0824 53.8033 71.382C54.3297 71.6816 54.9313 71.8314 55.6456 71.8314C56.2848 71.8314 56.8112 71.6816 57.3 71.4194C57.7136 71.1947 58.0519 70.8577 58.3151 70.4082C58.3903 70.2959 58.5031 70.221 58.6535 70.221H59.8943C60.1575 70.221 60.3455 70.4831 60.2327 70.7079C59.8567 71.4569 59.2927 72.0561 58.5783 72.4681C57.7136 72.9924 56.736 73.2545 55.6456 73.2545C54.6681 73.2545 53.8033 73.0298 52.9761 72.5804C52.1866 72.131 51.5474 71.4943 51.0586 70.7079C50.5698 70.0712 50.3442 69.1723 50.3442 68.1612Z" fill="#F87951"/>
<path d="M70.61 73.2924C70.4596 73.2924 70.3468 73.2175 70.2716 73.1052L68.1285 69.36C68.0533 69.2477 67.9405 69.1728 67.7901 69.1728H67.0757C66.8501 69.1728 66.6997 69.3226 66.6997 69.5473V72.9179C66.6997 73.1426 66.5493 73.2924 66.3238 73.2924H65.4214C65.1958 73.2924 65.0454 73.1426 65.0454 72.9179V63.4053C65.0454 63.1806 65.1958 63.0308 65.4214 63.0308H68.6173C69.4068 63.0308 70.0836 63.1806 70.61 63.4427C71.174 63.7049 71.5876 64.0794 71.8507 64.5663C72.1139 65.0157 72.2643 65.54 72.2643 66.1018C72.2643 66.7759 72.0763 67.3751 71.6628 67.9369C71.362 68.3489 70.9108 68.6859 70.3468 68.9106C70.1212 68.9855 70.0084 69.2851 70.1212 69.5098L72.1891 72.9928C72.2643 73.1426 72.1891 73.3299 72.0011 73.3299H70.61V73.2924ZM66.7373 67.4875C66.7373 67.7122 66.8877 67.862 67.1133 67.862H68.6173C69.2564 67.862 69.7076 67.7122 70.046 67.3751C70.3844 67.0755 70.5348 66.6261 70.5348 66.1018C70.5348 65.5775 70.3844 65.1655 70.046 64.8659C69.7452 64.5663 69.2564 64.4165 68.6173 64.4165H67.1133C66.8877 64.4165 66.7373 64.5663 66.7373 64.791V67.4875Z" fill="#F87951"/>
<path d="M83.3937 71.4573C83.3561 71.3075 83.2057 71.1952 83.0553 71.1952H79.2578C79.1074 71.1952 78.957 71.3075 78.9194 71.4573L78.3555 73.0677C78.3179 73.2175 78.1675 73.3299 78.0171 73.3299H76.8515C76.7011 73.3299 76.5883 73.1801 76.6259 73.0303L80.1226 63.2929C80.1602 63.1431 80.3106 63.0308 80.461 63.0308H81.8897C82.0401 63.0308 82.1905 63.1431 82.2281 63.2929L85.7248 73.0303C85.7624 73.1801 85.6872 73.3299 85.4992 73.3299H84.296C84.1456 73.3299 83.9953 73.2175 83.9577 73.0677L83.3937 71.4573ZM82.4913 69.8469C82.6417 69.8469 82.7545 69.6971 82.7169 69.5473L81.3258 65.5775C81.2506 65.4276 81.025 65.4276 80.9874 65.5775L79.5962 69.5473C79.5586 69.6971 79.6714 69.8469 79.8218 69.8469H82.4913Z" fill="#F87951"/>
<path d="M95.8009 63.0308C96.0265 63.0308 96.1769 63.1806 96.1769 63.4053V64.0419C96.1769 64.2667 96.0265 64.4165 95.8009 64.4165H92.1915C91.9659 64.4165 91.8155 64.5663 91.8155 64.791V67.0755C91.8155 67.3002 91.9659 67.45 92.1915 67.45H94.861C95.0865 67.45 95.2369 67.5998 95.2369 67.8245V68.4612C95.2369 68.6859 95.0865 68.8357 94.861 68.8357H92.1915C91.9659 68.8357 91.8155 68.9855 91.8155 69.2102V72.9554C91.8155 73.1801 91.6651 73.3299 91.4395 73.3299H90.4995C90.2739 73.3299 90.1235 73.1801 90.1235 72.9554V63.4427C90.1235 63.218 90.2739 63.0682 90.4995 63.0682H95.8009V63.0308Z" fill="#F87951"/>
<path d="M106.667 63.0308C106.893 63.0308 107.043 63.1806 107.043 63.4053V64.0419C107.043 64.2667 106.893 64.4165 106.667 64.4165H104.674C104.449 64.4165 104.298 64.5663 104.298 64.791V72.9179C104.298 73.1426 104.148 73.2924 103.922 73.2924H102.982C102.757 73.2924 102.607 73.1426 102.607 72.9179V64.791C102.607 64.5663 102.456 64.4165 102.231 64.4165H100.238C100.012 64.4165 99.8618 64.2667 99.8618 64.0419V63.4053C99.8618 63.1806 100.012 63.0308 100.238 63.0308H106.667Z" fill="#F87951"/>
<path d="M114.826 73.4046C114.149 73.4046 113.51 73.2923 112.946 73.0676C112.382 72.8054 111.968 72.4684 111.63 72.0189C111.367 71.6819 111.216 71.2699 111.179 70.8579C111.141 70.6707 111.329 70.4834 111.517 70.4834H112.607C112.795 70.4834 112.946 70.6332 113.021 70.8205C113.096 71.1201 113.247 71.3823 113.472 71.5695C113.773 71.8691 114.224 71.9815 114.788 71.9815C115.39 71.9815 115.841 71.8317 116.142 71.5695C116.48 71.2699 116.63 70.9329 116.63 70.4834C116.63 70.1464 116.518 69.8468 116.33 69.6595C116.142 69.4348 115.878 69.285 115.578 69.1726C115.277 69.0603 114.863 68.9105 114.337 68.7981C113.66 68.6109 113.134 68.4611 112.683 68.2738C112.269 68.0866 111.893 67.7869 111.63 67.4124C111.329 67.0379 111.179 66.5136 111.179 65.8769C111.179 65.2777 111.329 64.7534 111.63 64.3414C111.931 63.892 112.344 63.5549 112.871 63.3302C113.397 63.1055 114.036 62.9932 114.713 62.9932C115.728 62.9932 116.518 63.2553 117.157 63.7422C117.683 64.1542 118.022 64.7159 118.172 65.3901C118.21 65.6148 118.022 65.802 117.834 65.802H116.706C116.518 65.802 116.367 65.6522 116.292 65.465C116.217 65.2402 116.066 65.0155 115.841 64.8283C115.502 64.5661 115.089 64.4163 114.563 64.4163C114.074 64.4163 113.698 64.5287 113.359 64.7908C113.059 65.053 112.908 65.3901 112.908 65.8395C112.908 66.1391 112.983 66.4012 113.209 66.6259C113.397 66.8132 113.66 66.963 113.961 67.1128C114.262 67.2252 114.675 67.375 115.164 67.4873C115.841 67.6746 116.405 67.8618 116.818 68.0491C117.27 68.2364 117.608 68.536 117.909 68.9105C118.21 69.285 118.36 69.8093 118.36 70.446C118.36 70.9703 118.21 71.4572 117.946 71.9066C117.683 72.356 117.27 72.7305 116.706 73.0301C116.217 73.2548 115.578 73.4046 114.826 73.4046Z" fill="#F87951"/>
<g clip-path="url(#clip0_1636_20762)">
<path d="M43.4102 85.0565C43.4102 85.4288 43.3144 85.7736 43.1228 86.0909C42.9313 86.4012 42.6475 86.6529 42.2715 86.846C41.8955 87.0322 41.4379 87.1253 40.8987 87.1253C40.3666 87.1253 39.8912 87.0391 39.4726 86.8667C39.054 86.6874 38.717 86.4322 38.4616 86.1012C38.3075 85.8958 38.1944 85.6691 38.1222 85.4211C38.0488 85.1687 38.2666 84.9427 38.5365 84.9427H39.22C39.455 84.9427 39.6426 85.1197 39.7384 85.3283C39.7997 85.4616 39.8849 85.5813 39.9941 85.6874C40.2069 85.8805 40.4872 85.9771 40.8348 85.9771C41.147 85.9771 41.3846 85.8978 41.5478 85.7392C41.7181 85.5737 41.8032 85.3633 41.8032 85.1082C41.8032 84.8806 41.7358 84.6944 41.601 84.5496C41.4662 84.3979 41.296 84.2772 41.0902 84.1875C40.8845 84.0979 40.6007 83.9945 40.2388 83.8772C39.7706 83.7255 39.3875 83.5772 39.0895 83.4324C38.7915 83.2807 38.5361 83.0635 38.3233 82.7808C38.1175 82.498 38.0146 82.1291 38.0146 81.6739C38.0146 81.0464 38.2452 80.5533 38.7064 80.1947C39.1746 79.8292 39.7919 79.6465 40.5581 79.6465C41.3527 79.6465 41.9841 79.8327 42.4524 80.2051C42.7962 80.4744 43.0324 80.8087 43.1609 81.2079C43.2427 81.4619 43.0235 81.6946 42.7496 81.6946H42.0392C41.8114 81.6946 41.6287 81.5263 41.5226 81.3303C41.4663 81.2265 41.3931 81.1341 41.3031 81.0533C41.1186 80.8809 40.8667 80.7947 40.5475 80.7947C40.2708 80.7947 40.0473 80.8671 39.877 81.0119C39.7067 81.1498 39.6216 81.3533 39.6216 81.6222C39.6216 81.836 39.6855 82.0153 39.8132 82.1601C39.948 82.298 40.1147 82.4118 40.3133 82.5015C40.5191 82.5911 40.7958 82.6911 41.1434 82.8014C41.6259 82.9669 42.0161 83.1221 42.3141 83.2669C42.6191 83.4117 42.8781 83.629 43.0909 83.9186C43.3038 84.2082 43.4102 84.5875 43.4102 85.0565Z" fill="#F87951"/>
<path d="M51.502 79.75C51.7578 79.75 51.965 79.9515 51.965 80.2V80.4585C51.965 80.7071 51.7578 80.9085 51.502 80.9085H50.3528C50.097 80.9085 49.8898 81.11 49.8898 81.3585V86.6029C49.8898 86.8515 49.6825 87.0529 49.4269 87.0529H48.8522C48.5966 87.0529 48.3893 86.8515 48.3893 86.6029V81.3585C48.3893 81.11 48.182 80.9085 47.9263 80.9085H46.7877C46.532 80.9085 46.3247 80.7071 46.3247 80.4585V80.2C46.3247 79.9515 46.532 79.75 46.7877 79.75H51.502Z" fill="#F87951"/>
<path d="M56.1163 79.75C56.3719 79.75 56.5793 79.9515 56.5793 80.2V84.0325C56.5793 84.6048 56.7069 85.0358 56.9623 85.3255C57.2248 85.6082 57.6008 85.7496 58.0904 85.7496C58.5729 85.7496 58.9418 85.6082 59.1972 85.3255C59.4597 85.0358 59.5909 84.6048 59.5909 84.0325V80.2C59.5909 79.9515 59.7982 79.75 60.0539 79.75H60.6179C60.8735 79.75 61.0808 79.9515 61.0808 80.2V84.0325C61.0808 84.7083 60.9495 85.2806 60.687 85.7496C60.4317 86.2116 60.0734 86.5564 59.6122 86.784C59.1582 87.0116 58.6403 87.1254 58.0585 87.1254C57.1574 87.1254 56.4373 86.8633 55.8982 86.3392C55.359 85.8151 55.0894 85.0462 55.0894 84.0325V80.2C55.0894 79.9515 55.2966 79.75 55.5523 79.75H56.1163Z" fill="#F87951"/>
<path d="M71.3466 83.3911C71.3466 84.1152 71.1905 84.7531 70.8783 85.3048C70.5661 85.8565 70.1121 86.2875 69.5161 86.5978C68.9272 86.9012 68.2249 87.0529 67.409 87.0529H65.2008C64.9451 87.0529 64.7378 86.8515 64.7378 86.6029V80.2C64.7378 79.9515 64.9451 79.75 65.2008 79.75H67.409C68.2249 79.75 68.9272 79.9017 69.5161 80.2051C70.1121 80.5017 70.5661 80.9258 70.8783 81.4775C71.1905 82.0223 71.3466 82.6601 71.3466 83.3911ZM67.2813 85.7496C68.0901 85.7496 68.7145 85.5427 69.1543 85.1289C69.6012 84.7152 69.8247 84.1359 69.8247 83.3911C69.8247 82.6395 69.6012 82.0567 69.1543 81.643C68.7145 81.2292 68.0901 81.0223 67.2813 81.0223H66.7013C66.4457 81.0223 66.2383 81.2238 66.2383 81.4723V85.2996C66.2383 85.5481 66.4457 85.7496 66.7013 85.7496H67.2813Z" fill="#F87951"/>
<path d="M75.8486 79.75C76.1043 79.75 76.3116 79.9515 76.3116 80.2V86.6029C76.3116 86.8515 76.1043 87.0529 75.8486 87.0529H75.274C75.0183 87.0529 74.811 86.8515 74.811 86.6029V80.2C74.811 79.9515 75.0183 79.75 75.274 79.75H75.8486Z" fill="#F87951"/>
<path d="M83.533 79.6465C84.2354 79.6465 84.8704 79.8051 85.438 80.1223C86.0127 80.4395 86.4632 80.8843 86.7895 81.4567C87.1229 82.0222 87.2897 82.6635 87.2897 83.3807C87.2897 84.0979 87.1229 84.7427 86.7895 85.3151C86.4632 85.8874 86.0127 86.3322 85.438 86.6494C84.8704 86.9667 84.2354 87.1253 83.533 87.1253C82.8307 87.1253 82.1922 86.9667 81.6175 86.6494C81.0499 86.3322 80.5994 85.8874 80.2659 85.3151C79.9396 84.7427 79.7764 84.0979 79.7764 83.3807C79.7764 82.6635 79.9396 82.0222 80.2659 81.4567C80.5994 80.8843 81.0499 80.4395 81.6175 80.1223C82.1922 79.8051 82.8307 79.6465 83.533 79.6465ZM83.533 80.9912C83.0932 80.9912 82.7066 81.0878 82.373 81.2809C82.0396 81.4739 81.7771 81.7532 81.5855 82.1187C81.4011 82.4773 81.3089 82.898 81.3089 83.3807C81.3089 83.8634 81.4011 84.2875 81.5855 84.653C81.7771 85.0116 82.0396 85.2875 82.373 85.4806C82.7066 85.6736 83.0932 85.7702 83.533 85.7702C83.9729 85.7702 84.3596 85.6736 84.693 85.4806C85.0265 85.2875 85.2854 85.0116 85.4699 84.653C85.6615 84.2875 85.7573 83.8634 85.7573 83.3807C85.7573 82.898 85.6615 82.4773 85.4699 82.1187C85.2854 81.7532 85.0265 81.4739 84.693 81.2809C84.3596 81.0878 83.9729 80.9912 83.533 80.9912Z" fill="#F87951"/>
</g>
<defs>
<linearGradient id="paint0_linear_1636_20762" x1="29.541" y1="26.5978" x2="50.2419" y2="38.8856" gradientUnits="userSpaceOnUse">
<stop stop-color="#FEE9DB"/>
<stop offset="0.08" stop-color="#FCDACA"/>
<stop offset="0.25" stop-color="#F9B5A0"/>
<stop offset="0.48" stop-color="#F37A5C"/>
<stop offset="0.51" stop-color="#F37050"/>
<stop offset="0.79" stop-color="#EC4847"/>
<stop offset="0.84" stop-color="#D73C3E"/>
<stop offset="0.93" stop-color="#A11E27"/>
<stop offset="1" stop-color="#760615"/>
</linearGradient>
<linearGradient id="paint1_linear_1636_20762" x1="66.1094" y1="23.4856" x2="47.386" y2="4.15097" gradientUnits="userSpaceOnUse">
<stop stop-color="#FEE9DB"/>
<stop offset="0.08" stop-color="#FCDACA"/>
<stop offset="0.25" stop-color="#F9B5A0"/>
<stop offset="0.48" stop-color="#F37A5C"/>
<stop offset="0.51" stop-color="#F37050"/>
<stop offset="0.79" stop-color="#EC4847"/>
<stop offset="0.84" stop-color="#D73C3E"/>
<stop offset="0.93" stop-color="#A11E27"/>
<stop offset="1" stop-color="#760615"/>
</linearGradient>
<linearGradient id="paint2_linear_1636_20762" x1="60.3684" y1="28.965" x2="41.645" y2="9.62664" gradientUnits="userSpaceOnUse">
<stop stop-color="#FA8F5E"/>
<stop offset="0.19" stop-color="#FDC86E"/>
<stop offset="0.66" stop-color="#F53042"/>
<stop offset="0.71" stop-color="#E82B3D"/>
<stop offset="0.81" stop-color="#C82132"/>
<stop offset="0.94" stop-color="#940F20"/>
<stop offset="1" stop-color="#780616"/>
</linearGradient>
<linearGradient id="paint3_linear_1636_20762" x1="35.2409" y1="20.8344" x2="55.5118" y2="31.8217" gradientUnits="userSpaceOnUse">
<stop stop-color="#FA8F5E"/>
<stop offset="0.19" stop-color="#FDC86E"/>
<stop offset="0.66" stop-color="#F53042"/>
<stop offset="0.71" stop-color="#E82B3D"/>
<stop offset="0.81" stop-color="#C82132"/>
<stop offset="0.94" stop-color="#940F20"/>
<stop offset="1" stop-color="#780616"/>
</linearGradient>
<linearGradient id="paint4_linear_1636_20762" x1="33.1358" y1="11.1529" x2="32.9083" y2="29.549" gradientUnits="userSpaceOnUse">
<stop stop-color="#F8C9DB"/>
<stop offset="0.07" stop-color="#F6B8D2"/>
<stop offset="0.21" stop-color="#F28CBC"/>
<stop offset="0.41" stop-color="#EC4698"/>
<stop offset="0.45" stop-color="#EB3891"/>
<stop offset="0.53" stop-color="#DE358B"/>
<stop offset="0.68" stop-color="#BE2D7D"/>
<stop offset="0.87" stop-color="#8A2166"/>
<stop offset="1" stop-color="#661956"/>
</linearGradient>
<linearGradient id="paint5_linear_1636_20762" x1="62.6655" y1="32.9012" x2="41.487" y2="23.5295" gradientUnits="userSpaceOnUse">
<stop stop-color="#FA8F5E"/>
<stop offset="0.19" stop-color="#FDC86E"/>
<stop offset="0.66" stop-color="#F53042"/>
<stop offset="0.71" stop-color="#E82B3D"/>
<stop offset="0.81" stop-color="#C82132"/>
<stop offset="0.94" stop-color="#940F20"/>
<stop offset="1" stop-color="#780616"/>
</linearGradient>
<linearGradient id="paint6_linear_1636_20762" x1="62.7482" y1="40.3723" x2="43.9832" y2="21.0712" gradientUnits="userSpaceOnUse">
<stop stop-color="#FEE9DB"/>
<stop offset="0.08" stop-color="#FCDACA"/>
<stop offset="0.25" stop-color="#F9B5A0"/>
<stop offset="0.48" stop-color="#F37A5C"/>
<stop offset="0.51" stop-color="#F37050"/>
<stop offset="0.79" stop-color="#EC4847"/>
<stop offset="0.84" stop-color="#D73C3E"/>
<stop offset="0.93" stop-color="#A11E27"/>
<stop offset="1" stop-color="#760615"/>
</linearGradient>
<linearGradient id="paint7_linear_1636_20762" x1="56.4993" y1="21.2501" x2="44.1589" y2="39.7509" gradientUnits="userSpaceOnUse">
<stop stop-color="#F86652"/>
<stop offset="0.49" stop-color="white"/>
<stop offset="1" stop-color="#F53443"/>
</linearGradient>
<linearGradient id="paint8_linear_1636_20762" x1="62.9101" y1="16.5985" x2="46.7088" y2="20.6468" gradientUnits="userSpaceOnUse">
<stop stop-color="#FB9861"/>
<stop offset="0.13" stop-color="#FDBE6B"/>
<stop offset="0.46" stop-color="white"/>
<stop offset="1" stop-color="#BB1D2E"/>
</linearGradient>
<linearGradient id="paint9_linear_1636_20762" x1="21.6039" y1="20.2689" x2="58.2515" y2="39.1" gradientUnits="userSpaceOnUse">
<stop stop-color="#FEE9DB"/>
<stop offset="0.08" stop-color="#FCDACA"/>
<stop offset="0.25" stop-color="#F9B5A0"/>
<stop offset="0.48" stop-color="#F37A5C"/>
<stop offset="0.51" stop-color="#F37050"/>
<stop offset="0.79" stop-color="#EC4847"/>
<stop offset="0.84" stop-color="#D73C3E"/>
<stop offset="0.93" stop-color="#A11E27"/>
<stop offset="1" stop-color="#760615"/>
</linearGradient>
<linearGradient id="paint10_linear_1636_20762" x1="22.7807" y1="23.8079" x2="51.6213" y2="33.7269" gradientUnits="userSpaceOnUse">
<stop stop-color="#FA8F5E"/>
<stop offset="0.19" stop-color="#FDC86E"/>
<stop offset="0.66" stop-color="#F53042"/>
<stop offset="0.71" stop-color="#E82B3D"/>
<stop offset="0.81" stop-color="#C82132"/>
<stop offset="0.94" stop-color="#940F20"/>
<stop offset="1" stop-color="#780616"/>
</linearGradient>
<linearGradient id="paint11_linear_1636_20762" x1="59.3795" y1="15.9468" x2="27.822" y2="38.8835" gradientUnits="userSpaceOnUse">
<stop stop-color="#F64047"/>
<stop offset="0.51" stop-color="#F9EBEC"/>
<stop offset="1" stop-color="#E0293A"/>
</linearGradient>
<linearGradient id="paint12_linear_1636_20762" x1="98.387" y1="16.1978" x2="76.7448" y2="27.021" gradientUnits="userSpaceOnUse">
<stop stop-color="#DDC6EA"/>
<stop offset="0.64" stop-color="#8E61C5"/>
<stop offset="1" stop-color="#13336A"/>
</linearGradient>
<linearGradient id="paint13_linear_1636_20762" x1="90.3495" y1="32.3132" x2="78.0694" y2="16.6417" gradientUnits="userSpaceOnUse">
<stop stop-color="#FA8F5E"/>
<stop offset="0.19" stop-color="#FDC86E"/>
<stop offset="0.66" stop-color="#F53042"/>
<stop offset="0.71" stop-color="#E82B3D"/>
<stop offset="0.81" stop-color="#C82132"/>
<stop offset="0.94" stop-color="#940F20"/>
<stop offset="1" stop-color="#780616"/>
</linearGradient>
<linearGradient id="paint14_linear_1636_20762" x1="90.0675" y1="31.4367" x2="76.4292" y2="12.6526" gradientUnits="userSpaceOnUse">
<stop stop-color="#FEE9DB"/>
<stop offset="0.08" stop-color="#FCDACA"/>
<stop offset="0.25" stop-color="#F9B5A0"/>
<stop offset="0.48" stop-color="#F37A5C"/>
<stop offset="0.51" stop-color="#F37050"/>
<stop offset="0.79" stop-color="#EC4847"/>
<stop offset="0.84" stop-color="#D73C3E"/>
<stop offset="0.93" stop-color="#A11E27"/>
<stop offset="1" stop-color="#760615"/>
</linearGradient>
<linearGradient id="paint15_linear_1636_20762" x1="89.951" y1="28.6466" x2="68.6561" y2="19.2183" gradientUnits="userSpaceOnUse">
<stop stop-color="#FA8F5E"/>
<stop offset="0.19" stop-color="#FDC86E"/>
<stop offset="0.66" stop-color="#F53042"/>
<stop offset="0.71" stop-color="#E82B3D"/>
<stop offset="0.81" stop-color="#C82132"/>
<stop offset="0.94" stop-color="#940F20"/>
<stop offset="1" stop-color="#780616"/>
</linearGradient>
<linearGradient id="paint16_linear_1636_20762" x1="86.4691" y1="31.8713" x2="67.6517" y2="12.5101" gradientUnits="userSpaceOnUse">
<stop stop-color="#FEE9DB"/>
<stop offset="0.08" stop-color="#FCDACA"/>
<stop offset="0.25" stop-color="#F9B5A0"/>
<stop offset="0.48" stop-color="#F37A5C"/>
<stop offset="0.51" stop-color="#F37050"/>
<stop offset="0.79" stop-color="#EC4847"/>
<stop offset="0.84" stop-color="#D73C3E"/>
<stop offset="0.93" stop-color="#A11E27"/>
<stop offset="1" stop-color="#760615"/>
</linearGradient>
<linearGradient id="paint17_linear_1636_20762" x1="82.2317" y1="30.5302" x2="65.5732" y2="33.8999" gradientUnits="userSpaceOnUse">
<stop stop-color="#900E1F"/>
<stop offset="0.51" stop-color="white"/>
<stop offset="1" stop-color="#FA915F"/>
</linearGradient>
<linearGradient id="paint18_linear_1636_20762" x1="83.7543" y1="11.1568" x2="71.6854" y2="30.2923" gradientUnits="userSpaceOnUse">
<stop stop-color="#F64047"/>
<stop offset="0.51" stop-color="white"/>
<stop offset="1" stop-color="#F7574D"/>
</linearGradient>
<linearGradient id="paint19_linear_1636_20762" x1="62.2406" y1="26.8116" x2="81.8511" y2="40.381" gradientUnits="userSpaceOnUse">
<stop offset="0.19" stop-color="#FDC86E"/>
<stop offset="0.66" stop-color="#F53042"/>
<stop offset="0.71" stop-color="#E82B3D"/>
<stop offset="0.81" stop-color="#C82132"/>
<stop offset="0.94" stop-color="#940F20"/>
<stop offset="1" stop-color="#780616"/>
</linearGradient>
<linearGradient id="paint20_linear_1636_20762" x1="61.9058" y1="29.407" x2="76.613" y2="45.1155" gradientUnits="userSpaceOnUse">
<stop stop-color="#FEE9DB"/>
<stop offset="0.08" stop-color="#FCDACA"/>
<stop offset="0.25" stop-color="#F9B5A0"/>
<stop offset="0.48" stop-color="#F37A5C"/>
<stop offset="0.51" stop-color="#F37050"/>
<stop offset="0.79" stop-color="#EC4847"/>
<stop offset="0.84" stop-color="#D73C3E"/>
<stop offset="0.93" stop-color="#A11E27"/>
<stop offset="1" stop-color="#760615"/>
</linearGradient>
<linearGradient id="paint21_linear_1636_20762" x1="86.6081" y1="49.241" x2="76.0751" y2="32.8745" gradientUnits="userSpaceOnUse">
<stop stop-color="#FA8F5E"/>
<stop offset="0.19" stop-color="#FDC86E"/>
<stop offset="0.66" stop-color="#F53042"/>
<stop offset="0.71" stop-color="#E82B3D"/>
<stop offset="0.81" stop-color="#C82132"/>
<stop offset="0.94" stop-color="#940F20"/>
<stop offset="1" stop-color="#780616"/>
</linearGradient>
<linearGradient id="paint22_linear_1636_20762" x1="85.7433" y1="51.1925" x2="78.0976" y2="33.4561" gradientUnits="userSpaceOnUse">
<stop stop-color="#FEE9DB"/>
<stop offset="0.08" stop-color="#FCDACA"/>
<stop offset="0.25" stop-color="#F9B5A0"/>
<stop offset="0.48" stop-color="#F37A5C"/>
<stop offset="0.51" stop-color="#F37050"/>
<stop offset="0.79" stop-color="#EC4847"/>
<stop offset="0.84" stop-color="#D73C3E"/>
<stop offset="0.93" stop-color="#A11E27"/>
<stop offset="1" stop-color="#760615"/>
</linearGradient>
<linearGradient id="paint23_linear_1636_20762" x1="80.5021" y1="31.5268" x2="76.2798" y2="44.5658" gradientUnits="userSpaceOnUse">
<stop stop-color="#F7584E"/>
<stop offset="0.2" stop-color="#F7564D"/>
<stop offset="0.81" stop-color="#F8EFF0"/>
<stop offset="1" stop-color="#F02E40"/>
</linearGradient>
<clipPath id="clip0_1636_20762">
<rect width="50" height="9" fill="white" transform="translate(38 79)"/>
</clipPath>
</defs>
</svg>
