<svg width="40" height="40" viewBox="0 0 40 40" fill="none" xmlns="http://www.w3.org/2000/svg">
<circle cx="20" cy="20" r="20" fill="#FFE3DB"/>
<g clip-path="url(#clip0_1528_32975)">
<path d="M12.9283 28.3569H27.0712C27.7813 28.3569 28.3569 27.7813 28.3569 27.0712V12.9283C28.3569 12.2182 27.7813 11.6426 27.0712 11.6426H12.9283C12.2182 11.6426 11.6426 12.2182 11.6426 12.9283V27.0712C11.6426 27.7813 12.2182 28.3569 12.9283 28.3569Z" stroke="#F87951" stroke-width="1.4" stroke-linecap="round" stroke-linejoin="round"/>
<path d="M13.25 28.357L22.6357 19.5112C22.7512 19.415 22.8968 19.3623 23.0471 19.3623C23.1975 19.3623 23.3431 19.415 23.4586 19.5112L28.3571 23.0212" stroke="#F87951" stroke-width="1.4" stroke-linecap="round" stroke-linejoin="round"/>
<path d="M16.784 18.7136C17.8492 18.7136 18.7126 17.8501 18.7126 16.785C18.7126 15.7199 17.8492 14.8564 16.784 14.8564C15.7189 14.8564 14.8555 15.7199 14.8555 16.785C14.8555 17.8501 15.7189 18.7136 16.784 18.7136Z" stroke="#F87951" stroke-width="1.4" stroke-linecap="round" stroke-linejoin="round"/>
</g>
<defs>
<clipPath id="clip0_1528_32975">
<rect width="18" height="18" fill="white" transform="translate(11 11)"/>
</clipPath>
</defs>
</svg>
