<svg width="40" height="40" viewBox="0 0 40 40" fill="none" xmlns="http://www.w3.org/2000/svg">
<circle cx="20" cy="20" r="20" fill="#FFE3DB"/>
<g clip-path="url(#clip0_1528_32960)">
<path d="M25.1426 13.5713H27.714C28.069 13.5713 28.3569 13.8591 28.3569 14.2141V24.4999C28.3569 24.8548 28.069 25.1427 27.714 25.1427H12.2854C11.9304 25.1427 11.6426 24.8548 11.6426 24.4999V14.2141C11.6426 13.8591 11.9304 13.5713 12.2854 13.5713H14.8569" stroke="#F87951" stroke-width="1.4" stroke-linecap="round" stroke-linejoin="round"/>
<path d="M18.7154 25.1426L17.4297 28.3569" stroke="#F87951" stroke-width="1.4" stroke-linecap="round" stroke-linejoin="round"/>
<path d="M21.2852 25.1426L22.5709 28.3569" stroke="#F87951" stroke-width="1.4" stroke-linecap="round" stroke-linejoin="round"/>
<path d="M16.1426 28.3564H23.8569" stroke="#F87951" stroke-width="1.4" stroke-linecap="round" stroke-linejoin="round"/>
<path d="M20 19.3569V11.6426" stroke="#F87951" stroke-width="1.4" stroke-linecap="round" stroke-linejoin="round"/>
<path d="M17.4297 14.214L20.0011 11.6426L22.5725 14.214" stroke="#F87951" stroke-width="1.4" stroke-linecap="round" stroke-linejoin="round"/>
</g>
<defs>
<clipPath id="clip0_1528_32960">
<rect width="18" height="18" fill="white" transform="translate(11 11)"/>
</clipPath>
</defs>
</svg>
