<svg width="40" height="40" viewBox="0 0 40 40" fill="none" xmlns="http://www.w3.org/2000/svg">
<circle cx="20" cy="20" r="20" fill="#FFE3DB"/>
<g clip-path="url(#clip0_1528_32993)">
<path d="M12.7539 17.877H27.4721V25.8903C27.4721 26.6002 26.8964 27.176 26.1863 27.176H14.0396C13.3295 27.176 12.7539 26.6004 12.7539 25.8903V17.877Z" stroke="#F87951" stroke-width="1.4" stroke-linecap="round" stroke-linejoin="round"/>
<path d="M12.7528 17.8772L26.9694 14.0678L26.3525 11.7658C26.1688 11.0799 25.4638 10.6728 24.7779 10.8566L13.0451 14.0004C12.3592 14.1842 11.9521 14.8892 12.1359 15.5751L12.7528 17.8772Z" stroke="#F87951" stroke-width="1.4" stroke-linecap="round" stroke-linejoin="round"/>
<path d="M16.1289 23.9082H17.7736" stroke="#F87951" stroke-width="1.4" stroke-linecap="round" stroke-linejoin="round"/>
<path d="M16.6543 16.8322L17.4767 12.8135" stroke="#F87951" stroke-width="1.4" stroke-linecap="round" stroke-linejoin="round"/>
<path d="M21.2969 15.5881L22.1193 11.5693" stroke="#F87951" stroke-width="1.4" stroke-linecap="round" stroke-linejoin="round"/>
</g>
<defs>
<clipPath id="clip0_1528_32993">
<rect width="18" height="18" fill="white" transform="translate(11 10)"/>
</clipPath>
</defs>
</svg>
