<svg width="16" height="17" viewBox="0 0 16 17" fill="none" xmlns="http://www.w3.org/2000/svg">
<g clip-path="url(#clip0_1528_19472)">
<path d="M1.14272 3.9285C1.45831 3.9285 1.71415 3.67266 1.71415 3.35707C1.71415 3.04148 1.45831 2.78564 1.14272 2.78564C0.827127 2.78564 0.571289 3.04148 0.571289 3.35707C0.571289 3.67266 0.827127 3.9285 1.14272 3.9285Z" stroke="#F87951" stroke-width="1.4" stroke-linecap="round" stroke-linejoin="round"/>
<path d="M5.14258 3.35693H15.4283" stroke="#F87951" stroke-width="1.4" stroke-linecap="round" stroke-linejoin="round"/>
<path d="M1.14272 9.07157C1.45831 9.07157 1.71415 8.81573 1.71415 8.50014C1.71415 8.18455 1.45831 7.92871 1.14272 7.92871C0.827127 7.92871 0.571289 8.18455 0.571289 8.50014C0.571289 8.81573 0.827127 9.07157 1.14272 9.07157Z" stroke="#F87951" stroke-width="1.4" stroke-linecap="round" stroke-linejoin="round"/>
<path d="M5.14258 8.5H15.4283" stroke="#F87951" stroke-width="1.4" stroke-linecap="round" stroke-linejoin="round"/>
<path d="M1.14272 14.2141C1.45831 14.2141 1.71415 13.9583 1.71415 13.6427C1.71415 13.3272 1.45831 13.0713 1.14272 13.0713C0.827127 13.0713 0.571289 13.3272 0.571289 13.6427C0.571289 13.9583 0.827127 14.2141 1.14272 14.2141Z" stroke="#F87951" stroke-width="1.4" stroke-linecap="round" stroke-linejoin="round"/>
<path d="M5.14258 13.6426H15.4283" stroke="#F87951" stroke-width="1.4" stroke-linecap="round" stroke-linejoin="round"/>
</g>
<defs>
<clipPath id="clip0_1528_19472">
<rect width="16" height="16" fill="white" transform="translate(0 0.5)"/>
</clipPath>
</defs>
</svg>
