<svg width="22" height="22" viewBox="0 0 22 22" fill="none" xmlns="http://www.w3.org/2000/svg">
<path d="M4.06023 15.2795C3.7047 16.5676 3.44402 17.5006 3.10757 18.711C3.02883 18.9941 3.1934 19.1587 3.47647 19.0799C4.74148 18.7292 5.74514 18.4472 6.90801 18.1271L16.5897 8.44544L13.7422 5.59792L4.06023 15.2795ZM14.2902 5.0495L17.1377 7.89702L18.9127 6.12206C19.1438 5.89098 19.1463 5.52162 18.9185 5.29374L16.8936 3.26884C16.6657 3.04095 16.2962 3.04358 16.0652 3.27455L14.2902 5.0495ZM5.12197 15.1589L13.4579 6.82306L13.921 7.28614L5.58487 15.6223L5.12197 15.1589ZM4.58689 15.7875L6.37946 17.5801L4.77226 18.0108L4.15614 17.3947L4.58689 15.7875Z" fill="#F87951"/>
</svg>
