<svg width="14" height="15" viewBox="0 0 14 15" fill="none" xmlns="http://www.w3.org/2000/svg">
<g clip-path="url(#clip0_1528_17025)">
<path d="M5 12.7399L0.5 13.9999L1.76 9.4999L10 1.2999C10.0931 1.20465 10.2044 1.12897 10.3271 1.07731C10.4499 1.02564 10.5818 0.999023 10.715 0.999023C10.8482 0.999023 10.9801 1.02564 11.1029 1.07731C11.2256 1.12897 11.3369 1.20465 11.43 1.2999L13.2 3.0799C13.2937 3.17286 13.3681 3.28347 13.4189 3.40532C13.4697 3.52718 13.4958 3.65789 13.4958 3.7899C13.4958 3.92191 13.4697 4.05262 13.4189 4.17448C13.3681 4.29634 13.2937 4.40694 13.2 4.4999L5 12.7399Z" stroke="#F53042" stroke-linecap="round" stroke-linejoin="round"/>
</g>
<defs>
<clipPath id="clip0_1528_17025">
<rect width="14" height="14" fill="white" transform="translate(0 0.5)"/>
</clipPath>
</defs>
</svg>
