<svg width="16" height="17" viewBox="0 0 16 17" fill="none" xmlns="http://www.w3.org/2000/svg">
<path d="M4.21387 6.96415C4.21387 6.33297 4.72555 5.82129 5.35672 5.82129H14.2139C14.8451 5.82129 15.3567 6.33297 15.3567 6.96415V13.8212C15.3567 14.4524 14.8451 14.9641 14.2139 14.9641H5.35672C4.72555 14.9641 4.21387 14.4524 4.21387 13.8212V6.96415Z" stroke="#F87951" stroke-linecap="round" stroke-linejoin="round"/>
<path d="M11.9998 3.78557V3.46415C11.9998 2.83297 11.4881 2.32129 10.8569 2.32129H1.99979C1.36861 2.32129 0.856934 2.83297 0.856934 3.46415V10.3213C0.856934 10.9525 1.36861 11.4641 1.99979 11.4641H2.21408" stroke="#F87951" stroke-linecap="round" stroke-linejoin="round"/>
<path d="M8.57129 8.25L11.9999 10.3929L8.57129 12.5357V8.25Z" stroke="#F87951" stroke-linecap="round" stroke-linejoin="round"/>
</svg>
