<svg width="16" height="11" viewBox="0 0 16 11" fill="none" xmlns="http://www.w3.org/2000/svg">
<path opacity="0.4" d="M0.448963 1.41327C0.733341 1.11511 1.11803 0.947753 1.51901 0.947753C1.91999 0.947753 2.30468 1.11511 2.58906 1.41327L8.03795 7.08037L13.4109 1.41328C13.6953 1.11511 14.08 0.947754 14.481 0.947754C14.882 0.947754 15.2667 1.11511 15.551 1.41328C15.6933 1.5621 15.8062 1.73916 15.8833 1.93424C15.9603 2.12932 16 2.33856 16 2.5499C16 2.76123 15.9603 2.97047 15.8833 3.16555C15.8062 3.36064 15.6933 3.53769 15.551 3.68652L9.11558 10.4742C8.97448 10.6243 8.80661 10.7434 8.62165 10.8246C8.4367 10.9059 8.23831 10.9478 8.03794 10.9478C7.83758 10.9478 7.63919 10.9059 7.45424 10.8246C7.26928 10.7434 7.10141 10.6243 6.96031 10.4742L0.448963 3.68651C0.306702 3.53769 0.193787 3.36063 0.11673 3.16555C0.0396746 2.97047 -1.58539e-07 2.76123 -1.40064e-07 2.54989C-1.21588e-07 2.33856 0.0396747 2.12932 0.116731 1.93424C0.193788 1.73915 0.306703 1.5621 0.448963 1.41327Z" fill="black"/>
</svg>
