<svg width="24" height="25" viewBox="0 0 24 25" fill="none" xmlns="http://www.w3.org/2000/svg">
<path fill-rule="evenodd" clip-rule="evenodd" d="M1.71429 3.35693C0.767511 3.35693 0 4.12445 0 5.07122C0 6.01799 0.767511 6.78551 1.71429 6.78551H22.2857C23.2325 6.78551 24 6.01799 24 5.07122C24 4.12445 23.2325 3.35693 22.2857 3.35693H1.71429Z" fill="black"/>
<path d="M0 12.4999C0 11.5532 0.767511 10.7856 1.71429 10.7856H22.2857C23.2325 10.7856 24 11.5532 24 12.4999C24 13.4467 23.2325 14.2142 22.2857 14.2142H1.71429C0.767511 14.2142 0 13.4467 0 12.4999Z" fill="black"/>
<path d="M0 19.9286C0 18.9819 0.767511 18.2144 1.71429 18.2144H22.2857C23.2325 18.2144 24 18.9819 24 19.9286C24 20.8754 23.2325 21.6429 22.2857 21.6429H1.71429C0.767511 21.6429 0 20.8754 0 19.9286Z" fill="black"/>
</svg>
