<svg width="20" height="20" viewBox="0 0 20 20" fill="none" xmlns="http://www.w3.org/2000/svg">
<path d="M10.0003 16.6668C9.77931 16.6668 9.56735 16.579 9.41107 16.4228C9.25479 16.2665 9.16699 16.0545 9.16699 15.8335L9.16699 1.66683C9.16699 1.44582 9.25479 1.23385 9.41107 1.07757C9.56735 0.921293 9.77931 0.833496 10.0003 0.833496C10.2213 0.833496 10.4333 0.921293 10.5896 1.07757C10.7459 1.23385 10.8337 1.44582 10.8337 1.66683L10.8337 15.8335C10.8337 16.0545 10.7459 16.2665 10.5896 16.4228C10.4333 16.579 10.2213 16.6668 10.0003 16.6668Z" fill="white"/>
<path d="M15.8333 7.49982C15.6123 7.49977 15.4004 7.41195 15.2442 7.25565L10 2.01149L4.75583 7.25565C4.59866 7.40745 4.38816 7.49145 4.16967 7.48955C3.95117 7.48765 3.74216 7.40001 3.58765 7.2455C3.43314 7.091 3.3455 6.88199 3.3436 6.66349C3.34171 6.44499 3.4257 6.23449 3.5775 6.07732L9.41083 0.243989C9.56711 0.0877628 9.77903 0 10 0C10.221 0 10.4329 0.0877628 10.5892 0.243989L16.4225 6.07732C16.539 6.19386 16.6183 6.34233 16.6505 6.50396C16.6826 6.66559 16.6661 6.83312 16.6031 6.98537C16.54 7.13762 16.4332 7.26775 16.2962 7.35932C16.1592 7.45089 15.9981 7.49979 15.8333 7.49982ZM19.1667 19.9998L0.833333 19.9998C0.61232 19.9998 0.400358 19.912 0.244078 19.7557C0.0877974 19.5995 0 19.3875 0 19.1665C0 18.9455 0.0877974 18.7335 0.244078 18.5772C0.400358 18.4209 0.61232 18.3332 0.833333 18.3332L19.1667 18.3332C19.3877 18.3332 19.5996 18.4209 19.7559 18.5772C19.9122 18.7335 20 18.9455 20 19.1665C20 19.3875 19.9122 19.5995 19.7559 19.7557C19.5996 19.912 19.3877 19.9998 19.1667 19.9998Z" fill="white"/>
<path d="M19.1667 20C18.9457 20 18.7337 19.9122 18.5774 19.7559C18.4211 19.5996 18.3333 19.3877 18.3333 19.1667V15.8333C18.3333 15.6123 18.4211 15.4004 18.5774 15.2441C18.7337 15.0878 18.9457 15 19.1667 15C19.3877 15 19.5996 15.0878 19.7559 15.2441C19.9122 15.4004 20 15.6123 20 15.8333V19.1667C20 19.3877 19.9122 19.5996 19.7559 19.7559C19.5996 19.9122 19.3877 20 19.1667 20ZM0.833333 20C0.61232 20 0.400358 19.9122 0.244078 19.7559C0.0877974 19.5996 0 19.3877 0 19.1667L0 15.8333C0 15.6123 0.0877974 15.4004 0.244078 15.2441C0.400358 15.0878 0.61232 15 0.833333 15C1.05435 15 1.26631 15.0878 1.42259 15.2441C1.57887 15.4004 1.66667 15.6123 1.66667 15.8333L1.66667 19.1667C1.66667 19.3877 1.57887 19.5996 1.42259 19.7559C1.26631 19.9122 1.05435 20 0.833333 20Z" fill="white"/>
</svg>
