<svg width="23" height="22" viewBox="0 0 23 22" fill="none" xmlns="http://www.w3.org/2000/svg">
<path d="M12.1504 3.28966C13.0411 2.95886 13.9888 3.61754 13.9888 4.56785L13.9881 7.16369C15.7473 7.74165 17.62 7.95778 19.4921 7.7815C20.3826 7.69748 21.0948 8.47366 20.9705 9.33059L20.9372 9.49202L19.0861 16.4005C18.7216 17.7603 17.8088 18.9021 16.5735 19.5582L16.304 19.6913L15.3518 20.1267C12.7646 21.3102 9.71861 20.5611 7.97109 18.3502L7.78236 18.0985L7.4948 17.6954C6.08196 17.7107 4.66491 17.2409 3.50969 16.286L2.70276 15.6189C1.54025 14.6579 0.867188 13.2283 0.867188 11.72V4.56785C0.867188 3.61754 1.81474 2.9589 2.70566 3.28968C5.75211 4.42142 9.10384 4.42142 12.1504 3.28966ZM13.9883 8.73053L13.9888 11.72C13.9888 12.3238 13.8809 12.9151 13.6769 13.4687C14.7265 13.929 15.508 14.8458 15.8012 15.9592C15.9064 16.3588 15.6678 16.768 15.2682 16.8733C14.8776 16.9761 14.4779 16.7505 14.3617 16.3672L14.3541 16.3403C14.1656 15.6246 13.6451 15.0452 12.9509 14.7866C12.7205 15.0917 12.4532 15.3709 12.1532 15.6188L11.3462 16.286C10.6875 16.8305 9.94365 17.2173 9.16398 17.4464L9.00187 17.2312C10.2418 18.9748 12.5008 19.6388 14.4738 18.8738L14.7294 18.7659L15.6816 18.3304C16.5669 17.9255 17.2442 17.1779 17.5628 16.2658L17.6406 16.0132L19.4425 9.28795L19.3114 9.29815C17.5049 9.42936 15.7027 9.23272 13.9883 8.73053ZM12.4923 4.75763L12.365 4.80256C9.13305 5.92436 5.61367 5.91229 2.38801 4.76642L2.36366 4.75763V11.72C2.36366 12.7628 2.82053 13.7521 3.61195 14.4283L3.65626 14.4655L4.46318 15.1326C6.1838 16.5549 8.67215 16.5549 10.3927 15.1327L11.1997 14.4655C12.0183 13.7888 12.4923 12.7821 12.4923 11.72V4.75763ZM10.4232 11.0892C10.782 11.2942 10.9066 11.7513 10.7015 12.1101C10.0351 13.2761 8.79569 14.0118 7.42799 14.0118C6.06032 14.0118 4.82093 13.2761 4.15435 12.1102C3.94925 11.7514 4.07381 11.2943 4.43256 11.0892C4.78277 10.889 5.22669 11.0029 5.43842 11.3422L5.4535 11.3674C5.85638 12.0721 6.60302 12.5153 7.42799 12.5153C8.25295 12.5153 8.99957 12.0721 9.40232 11.3675C9.60738 11.0087 10.0645 10.8841 10.4232 11.0892Z" fill="#F87951"/>
</svg>
