<svg width="53" height="52" viewBox="0 0 53 52" fill="none" xmlns="http://www.w3.org/2000/svg">
<rect x="6.5" y="6" width="40" height="40" rx="20" fill="#F53042" fill-opacity="0.2"/>
<rect x="3.5" y="3" width="46" height="46" rx="23" stroke="#F53042" stroke-opacity="0.1" stroke-width="6"/>
<path d="M23.167 29.3333L26.5003 26M26.5003 26L29.8337 29.3333M26.5003 26V33.5M33.167 29.9524C34.1849 29.1117 34.8337 27.8399 34.8337 26.4167C34.8337 23.8854 32.7816 21.8333 30.2503 21.8333C30.0682 21.8333 29.8979 21.7383 29.8054 21.5814C28.7187 19.7374 26.7124 18.5 24.417 18.5C20.9652 18.5 18.167 21.2982 18.167 24.75C18.167 26.4718 18.8632 28.0309 19.9894 29.1613" stroke="#F53042" stroke-width="1.66667" stroke-linecap="round" stroke-linejoin="round"/>
</svg>
