<svg width="23" height="23" viewBox="0 0 23 23" fill="none" xmlns="http://www.w3.org/2000/svg">
<path d="M20.0803 4H2.34829C1.60365 4 1 4.60365 1 5.34829V17.53C1 18.2746 1.60365 18.8783 2.34829 18.8783H20.0803C20.8249 18.8783 21.4286 18.2746 21.4286 17.53V5.34829C21.4286 4.60365 20.8249 4 20.0803 4Z" stroke="#F87951" stroke-linecap="round" stroke-linejoin="round"/>
<path d="M14.9219 9.67822H18.044" stroke="#F87951" stroke-linecap="round" stroke-linejoin="round"/>
<path d="M14.9219 12.7725H18.044" stroke="#F87951" stroke-linecap="round" stroke-linejoin="round"/>
<path d="M5.72656 10.1941C5.72656 11.6181 6.88095 12.7725 8.30496 12.7725C8.66496 12.7725 9.00772 12.6987 9.31896 12.5655C10.2389 12.1716 10.8833 11.2581 10.8833 10.1941C10.8833 8.77011 9.72897 7.61572 8.30496 7.61572C6.88095 7.61572 5.72656 8.77011 5.72656 10.1941Z" stroke="#F87951" stroke-linecap="round" stroke-linejoin="round"/>
<path d="M4.38477 15.3258C4.79447 14.5465 5.37029 13.9025 6.05686 13.4556C6.74343 13.0087 7.51768 12.7739 8.30515 12.7739C9.09264 12.7739 9.86688 13.0087 10.5535 13.4556C11.24 13.9025 11.8158 14.5465 12.2256 15.3258" stroke="#F87951" stroke-linecap="round" stroke-linejoin="round"/>
</svg>
